<svg width="115" height="36" viewBox="0 0 115 36" fill="none" xmlns="http://www.w3.org/2000/svg">
<path d="M0 14.6013C0.0897759 14.6872 0.155242 14.6318 0.178614 14.525C0.220499 14.3334 0.240636 14.1373 0.273616 13.9437C0.805247 10.8228 2.09663 8.05868 4.17919 5.67269C6.07171 3.50443 8.38357 1.94162 11.089 0.968413C12.4746 0.469959 13.9014 0.161748 15.3763 0.0509429C16.6657 -0.0459277 17.9441 -0.00492108 19.259 0.176327C19.4716 0.334157 19.4499 0.541031 19.45 0.734995C19.4531 6.33803 19.4585 11.9411 19.4445 17.5441C19.4431 18.1035 19.3519 18.6618 19.2469 19.215C18.963 20.71 18.0583 21.5977 16.5964 21.9376C15.6681 22.1533 14.7256 22.1388 13.7893 22.0223C12.8787 21.909 12.1321 21.4615 11.5282 20.7724C11.4383 20.6698 11.3633 20.5541 11.2591 20.4644C11.2502 20.4567 11.2306 20.4614 11.2099 20.4599C11.121 20.5782 11.1641 20.7176 11.1639 20.8465C11.1607 22.7445 11.1604 24.6426 11.1624 26.5406C11.163 27.1664 11.201 27.2154 11.7933 27.3247C14.0747 27.7457 16.3513 27.7336 18.6119 27.195C21.9967 26.3885 24.0276 24.244 24.7881 20.8691C25.0593 19.6651 25.1824 18.44 25.1859 17.2095C25.1991 12.5479 25.1904 7.88626 25.1932 3.22465C25.1934 2.95463 25.1476 2.67583 25.3176 2.39429C26.5826 3.09865 27.6924 3.98533 28.6907 5.01183C30.4179 6.78783 31.7002 8.84059 32.5048 11.1864C32.9683 12.5373 33.26 13.9204 33.3718 15.3503C33.5391 17.4917 33.3066 19.5781 32.675 21.6258C32.0466 23.6632 31.056 25.5076 29.7131 27.1608C28.2908 28.9118 26.5889 30.3225 24.5889 31.3769C23.1585 32.131 21.6586 32.6759 20.0763 33.0037C18.6589 33.2973 17.2233 33.3965 15.7854 33.3134C13.6053 33.1874 11.5151 32.6637 9.54123 31.7106C7.26872 30.6134 5.32769 29.0978 3.74187 27.1289C2.53206 25.6268 1.61003 23.9657 0.974088 22.1475C0.608703 21.1028 0.358717 20.0273 0.196191 18.9321C0.181385 18.8323 0.206154 18.7116 0.0292375 18.7221C2.71528e-09 18.6599 0 18.5627 0 18.429C0.137053 18.2349 0.110797 18.0636 0.0209401 17.8673C-4.07293e-09 17.0844 0 16.323 0 15.5189C0.137053 15.3185 0.110797 15.1473 0.0209401 14.9509C-4.07293e-09 14.8322 0 14.735 0 14.6013Z" fill="#212529"/>
<path d="M0 14.9685C0.0387675 14.8732 0.13145 14.8583 0.129699 14.9085C0.123216 15.0942 0.191756 15.2931 0.032816 15.4707C0 15.32 0 15.1637 0 14.9685Z" fill="#524500"/>
<path d="M0 17.8848C0.166207 18.0245 0.183279 18.1998 0.0295591 18.4228C-2.71112e-09 18.2363 0 18.0801 0 17.8848Z" fill="#524500"/>
<path d="M25.3466 2.33121C25.2895 2.56167 25.3158 2.76054 25.3157 2.95679C25.3141 7.61914 25.316 12.2815 25.3132 16.9438C25.3124 18.3435 25.2095 19.7342 24.8717 21.0981C24.5393 22.4404 24.0004 23.6843 23.0944 24.7481C21.9262 26.1199 20.4126 26.9104 18.6889 27.3208C16.2739 27.8959 13.8468 27.872 11.4185 27.395C11.0333 27.3194 11.027 27.3123 11.0266 26.9766C11.0244 24.729 11.0256 22.4813 11.0268 20.2337C11.0268 20.177 11.0399 20.1203 11.0456 20.0737C11.1929 20.0074 11.2204 20.1225 11.2616 20.1901C11.9811 21.3709 13.0686 21.9029 14.4129 21.9594C15.2788 21.9959 16.1393 21.967 16.9784 21.6915C18.045 21.3413 18.7278 20.6364 19.0324 19.5613C19.2284 18.8697 19.2973 18.1583 19.2997 17.4443C19.3099 14.4981 19.3081 11.5519 19.3086 8.60565C19.3092 5.82647 19.3072 3.04729 19.301 0.227238C19.3952 0.133065 19.5033 0.15111 19.6083 0.151054C21.3983 0.150109 23.1883 0.150621 24.9783 0.150176C25.3721 0.150075 25.3439 0.123709 25.3436 0.518723C25.3433 1.1105 25.3438 1.70228 25.3466 2.33121Z" fill="#FFFFFE"/>
<path d="M57.6885 32.2452C57.6885 33.4142 57.6901 34.5376 57.6874 35.6611C57.6866 35.9881 57.681 35.9936 57.3733 35.9956C56.7663 35.9996 56.1591 35.9914 55.5521 35.9999C55.3626 36.0025 55.2652 35.9507 55.2873 35.7458C55.2969 35.6558 55.2887 35.5638 55.2887 35.4727C55.2886 28.0489 55.2886 20.625 55.2886 13.2012C55.2886 13.1708 55.2888 13.1404 55.2886 13.1101C55.2863 12.6094 55.2818 12.667 55.7294 12.666C56.2454 12.665 56.7615 12.6664 57.2775 12.6656C57.7032 12.6649 57.6893 12.6306 57.6887 13.0944C57.6879 13.6561 57.6885 14.2178 57.6886 14.7795C57.6886 14.8507 57.6886 14.9218 57.6886 14.9773C57.8513 15.0174 57.8809 14.9114 57.9337 14.8481C58.8715 13.7261 60.0121 12.8991 61.4446 12.5502C63.8356 11.9678 66.0104 12.386 67.8637 14.0753C69.326 15.4081 70.216 17.0438 70.4502 19.0312C70.6352 20.602 70.4847 22.1274 69.7845 23.5446C68.7538 25.6304 67.2213 27.1866 64.8631 27.706C62.7027 28.1819 60.7139 27.7697 58.9656 26.3801C58.5753 26.0699 58.2339 25.698 57.9066 25.3182C57.86 25.2641 57.8254 25.1872 57.6885 25.2145C57.6885 27.5378 57.6885 29.8687 57.6885 32.2452Z" fill="#212529"/>
<path d="M105.967 12.6655C106.421 12.6655 106.831 12.6623 107.241 12.6665C107.579 12.6699 107.579 12.6738 107.586 13.0262C107.587 13.0869 107.586 13.1476 107.586 13.2084C107.586 17.809 107.587 22.4096 107.585 27.0102C107.585 27.5691 107.661 27.5191 107.076 27.5211C106.53 27.523 105.983 27.5138 105.437 27.5251C105.219 27.5297 105.145 27.4566 105.151 27.2369C105.164 26.7059 105.155 26.1742 105.155 25.6428C105.155 25.5127 105.155 25.3827 105.155 25.1861C104.972 25.3217 104.883 25.4338 104.784 25.5423C103.139 27.3607 101.097 28.1136 98.6645 27.8177C96.2736 27.5269 94.6246 26.1573 93.4224 24.1719C92.6937 22.9684 92.3803 21.6411 92.3631 20.2308C92.3485 19.0294 92.5293 17.8717 93.037 16.7847C93.9602 14.8079 95.3582 13.2775 97.4859 12.6318C99.852 11.9137 102.063 12.3032 104.009 13.9072C104.406 14.234 104.743 14.6153 105.155 15.0885C105.155 14.7404 105.155 14.4921 105.155 14.2438C105.155 13.8035 105.162 13.363 105.152 12.9229C105.147 12.7205 105.23 12.6525 105.421 12.6636C105.588 12.6733 105.755 12.6655 105.967 12.6655Z" fill="#212529"/>
<path d="M39.3278 25.9853C38.6178 25.0021 38.2428 23.9365 38.1495 22.7569C38.1172 22.3483 38.1005 21.942 38.1001 21.534C38.0978 18.7863 38.0989 16.0385 38.0989 13.2907C38.0989 13.2148 38.0982 13.1389 38.0991 13.063C38.1036 12.6703 38.1037 12.6678 38.4985 12.6662C39.06 12.6639 39.6216 12.6628 40.1831 12.6666C40.5225 12.669 40.5285 12.6737 40.5289 13.0247C40.531 14.8919 40.5299 16.7592 40.5299 18.6265C40.5299 19.8106 40.5251 20.9948 40.5317 22.1789C40.5355 22.8704 40.6932 23.5284 41.0142 24.1441C41.4634 25.0056 42.1789 25.4137 43.1451 25.428C43.8463 25.4384 44.536 25.3863 45.2087 25.1791C46.3532 24.8267 47.1316 24.0692 47.6188 22.9919C47.9709 22.2134 48.1694 21.3932 48.2741 20.5484C48.3448 19.977 48.3698 19.4039 48.3673 18.8274C48.3591 16.945 48.3642 15.0625 48.3643 13.18C48.3643 13.0738 48.3673 12.9675 48.3653 12.8613C48.3628 12.732 48.416 12.6653 48.5528 12.6657C49.2205 12.6677 49.8883 12.6689 50.5561 12.6647C50.7171 12.6637 50.7689 12.7414 50.7643 12.8871C50.7609 12.9933 50.7643 13.0997 50.7643 13.2059C50.7643 17.8058 50.7652 22.4057 50.7632 27.0056C50.763 27.5917 50.8357 27.5162 50.2649 27.5206C49.7338 27.5247 49.2023 27.5119 48.6715 27.5258C48.4406 27.5318 48.3515 27.4686 48.3591 27.2231C48.3759 26.6771 48.3664 26.1302 48.3622 25.5837C48.3614 25.4846 48.3989 25.3769 48.2932 25.2381C47.6102 26.2176 46.8026 27.0283 45.674 27.4582C44.569 27.8792 43.4367 27.95 42.2836 27.7546C41.0849 27.5515 40.1028 26.969 39.3278 25.9853Z" fill="#212529"/>
<path d="M86.54 16.661C86.54 20.1067 86.54 23.5067 86.54 26.9068C86.54 27.0131 86.5279 27.121 86.5422 27.2253C86.5775 27.4823 86.446 27.529 86.2244 27.5253C85.6327 27.5152 85.0408 27.5248 84.449 27.5207C84.1141 27.5184 84.1092 27.5132 84.109 27.1599C84.1073 25.0045 84.1081 22.849 84.1081 20.6936C84.1081 18.9329 84.1101 17.1721 84.107 15.4114C84.106 14.8417 84.1778 14.9192 83.589 14.9166C82.6482 14.9123 81.7073 14.9175 80.7665 14.9142C80.4437 14.9131 80.438 14.9071 80.4351 14.5906C80.4304 14.0594 80.4306 13.5281 80.435 12.9969C80.4377 12.6739 80.4429 12.6675 80.7596 12.6664C81.7459 12.6631 82.7323 12.665 83.7186 12.6652C84.1417 12.6653 84.1079 12.6879 84.108 12.2672C84.1083 10.643 84.1064 9.01886 84.1091 7.39472C84.11 6.84378 84.0339 6.89678 84.6287 6.89412C85.1295 6.89189 85.6303 6.89207 86.131 6.89416C86.5373 6.89586 86.5394 6.89783 86.5396 7.32424C86.5405 8.91803 86.54 10.5118 86.54 12.1056C86.54 12.1815 86.5386 12.2574 86.5403 12.3333C86.5475 12.6595 86.5479 12.6634 86.9046 12.6644C87.7999 12.6667 88.6952 12.6651 89.5905 12.6651C89.6664 12.6651 89.7423 12.6645 89.8181 12.6653C90.2098 12.6693 90.2122 12.6694 90.214 13.0628C90.2164 13.5788 90.2053 14.0952 90.2186 14.6109C90.2248 14.8473 90.1466 14.9235 89.907 14.9204C88.9663 14.9081 88.0254 14.9154 87.0846 14.9154C86.9784 14.9155 86.8715 14.9233 86.7661 14.9144C86.5805 14.8986 86.5358 14.9914 86.538 15.1583C86.5445 15.6439 86.5401 16.1297 86.54 16.661Z" fill="#212529"/>
<path d="M114.996 7.274C114.996 13.8491 114.996 20.3787 114.996 26.9083C114.996 27.0298 114.986 27.1522 114.998 27.2725C115.018 27.4804 114.916 27.526 114.73 27.5237C114.107 27.516 113.485 27.516 112.863 27.5238C112.677 27.5261 112.574 27.4809 112.594 27.273C112.605 27.1678 112.596 27.0606 112.596 26.9543C112.596 18.891 112.596 10.8278 112.597 2.76449C112.597 2.11073 112.537 2.18974 113.186 2.18609C113.672 2.18336 114.158 2.18298 114.644 2.18643C114.988 2.18889 114.994 2.19252 114.995 2.53624C114.998 3.78141 114.996 5.02659 114.996 6.27177C114.996 6.59065 114.996 6.90954 114.996 7.274Z" fill="#212529"/>
<path d="M77.0942 22.5848C77.0942 24.1338 77.0951 25.6373 77.0935 27.1408C77.0931 27.5152 77.0895 27.5186 76.7322 27.5202C76.1401 27.5229 75.5479 27.5149 74.956 27.5242C74.763 27.5272 74.6716 27.4699 74.6937 27.2672C74.7035 27.1772 74.6951 27.0852 74.6951 26.9941C74.6951 22.3925 74.6951 17.7909 74.6951 13.1894C74.6951 13.0983 74.7022 13.0065 74.694 12.9162C74.6754 12.7098 74.7787 12.6609 74.966 12.6632C75.5883 12.6712 76.211 12.6721 76.8333 12.6629C77.0313 12.66 77.1109 12.7311 77.0954 12.9262C77.087 13.0318 77.0942 13.1387 77.0942 13.245C77.0942 16.3431 77.0942 19.4411 77.0942 22.5848Z" fill="#212529"/>
<path d="M74.4354 8.1207C74.7738 7.08881 76.066 6.78681 76.8441 7.41003C77.3436 7.81003 77.5468 8.48577 77.3243 9.12443C77.1235 9.70112 76.5277 10.155 75.8474 10.12C75.1817 10.0858 74.635 9.70766 74.4407 9.0921C74.3427 8.78181 74.3193 8.46975 74.4354 8.1207Z" fill="#212529"/>
<path d="M57.6876 20.1199C57.6747 17.4676 59.6975 15.1612 61.9656 14.8085C63.9058 14.5068 65.5243 15.0682 66.8053 16.5537C67.5668 17.4368 67.9602 18.4629 68.0905 19.6392C68.3843 22.2892 66.3997 24.8905 64.025 25.3701C61.8463 25.8102 59.7809 24.9797 58.4991 22.9576C57.9563 22.1012 57.7367 21.1579 57.6876 20.1199Z" fill="#FFF7CD"/>
<path d="M104.427 22.8689C103.846 23.8266 103.099 24.5619 102.109 25.0213C100.24 25.8878 97.8533 25.5451 96.3431 23.9458C95.4543 23.0045 94.9078 21.9206 94.7848 20.6473C94.6354 19.1003 95.0629 17.7122 96.0954 16.5285C96.7882 15.7343 97.6118 15.1346 98.6492 14.8896C100.148 14.5356 101.582 14.6944 102.847 15.6215C104.309 16.6919 105.13 18.1201 105.162 19.9758C105.18 21.005 104.966 21.9565 104.427 22.8689Z" fill="#FFF6C8"/>
</svg>
