<svg width="29" height="30" viewBox="0 0 29 30" fill="none" xmlns="http://www.w3.org/2000/svg">
<path opacity="0.3" d="M27.4371 24.2365L15.7496 28.8831C14.8145 29.2657 13.7665 29.2657 12.8313 28.8831L1.2288 24.2365C0.912608 24.1107 0.641444 23.8929 0.4504 23.6113C0.259356 23.3296 0.157227 22.9972 0.157227 22.6569C0.157227 22.3166 0.259356 21.9841 0.4504 21.7025C0.641444 21.4209 0.912608 21.2031 1.2288 21.0773L2.99964 20.3548L11.7688 23.8681C13.3886 24.5103 15.1923 24.5103 16.8121 23.8681L25.6663 20.3548L27.4796 21.0773C27.7942 21.2073 28.0625 21.4287 28.2498 21.7129C28.4371 21.9971 28.5348 22.331 28.5302 22.6713C28.5256 23.0116 28.419 23.3427 28.2241 23.6218C28.0292 23.9008 27.7551 24.115 27.4371 24.2365ZM15.7496 21.2331L27.3946 16.5723C27.7064 16.4442 27.9731 16.2263 28.1608 15.9463C28.3485 15.6663 28.4487 15.3369 28.4487 14.9998C28.4487 14.6627 28.3485 14.3332 28.1608 14.0532C27.9731 13.7732 27.7064 13.5554 27.3946 13.4273L15.7496 8.76645C14.8369 8.4203 13.829 8.4203 12.9163 8.76645L1.2288 13.4273C0.917005 13.5554 0.65032 13.7732 0.462637 14.0532C0.274955 14.3332 0.174747 14.6627 0.174747 14.9998C0.174747 15.3369 0.274955 15.6663 0.462637 15.9463C0.65032 16.2263 0.917005 16.4442 1.2288 16.5723L12.9163 21.2331C13.829 21.5793 14.8369 21.5793 15.7496 21.2331Z" fill="#7E8299"/>
<path d="M12.9163 13.5832L1.2288 8.92238C0.912608 8.79658 0.641444 8.57879 0.4504 8.29718C0.259356 8.01556 0.157227 7.68309 0.157227 7.3428C0.157227 7.0025 0.259356 6.67003 0.4504 6.38842C0.641444 6.1068 0.912608 5.88901 1.2288 5.76321L12.9163 1.11655C13.8265 0.756724 14.8395 0.756724 15.7496 1.11655L27.3946 5.76321C27.7108 5.88901 27.982 6.1068 28.173 6.38842C28.3641 6.67003 28.4662 7.0025 28.4662 7.3428C28.4662 7.68309 28.3641 8.01556 28.173 8.29718C27.982 8.57879 27.7108 8.79658 27.3946 8.92238L15.7496 13.5832C14.8369 13.9294 13.829 13.9294 12.9163 13.5832Z" fill="#7E8299"/>
</svg>
