<svg width="30" height="30" viewBox="0 0 30 30" fill="none" xmlns="http://www.w3.org/2000/svg">
<path d="M7.20801 13.583C10.7288 13.583 13.583 10.7288 13.583 7.20801C13.583 3.68719 10.7288 0.833008 7.20801 0.833008C3.68719 0.833008 0.833008 3.68719 0.833008 7.20801C0.833008 10.7288 3.68719 13.583 7.20801 13.583Z" fill="#7E8299"/>
<path d="M16.4164 7.20801C16.4164 5.94715 16.7902 4.71461 17.4907 3.66625C18.1912 2.61789 19.1869 1.80079 20.3518 1.31828C21.5166 0.83577 22.7984 0.709524 24.0351 0.955505C25.2717 1.20149 26.4076 1.80864 27.2992 2.7002C28.1907 3.59176 28.7979 4.72768 29.0439 5.96431C29.2898 7.20094 29.1636 8.48274 28.6811 9.64762C28.1986 10.8125 27.3815 11.8081 26.3331 12.5086C25.2848 13.2091 24.0522 13.583 22.7914 13.583C21.9537 13.5849 21.1238 13.4213 20.3495 13.1015C19.5753 12.7818 18.8717 12.3123 18.2794 11.72C17.687 11.1276 17.2175 10.4241 16.8978 9.64983C16.5781 8.87553 16.4145 8.04571 16.4164 7.20801ZM7.20802 29.1663C8.46888 29.1663 9.70142 28.7925 10.7498 28.092C11.7981 27.3915 12.6152 26.3958 13.0978 25.231C13.5803 24.0661 13.7065 22.7843 13.4605 21.5476C13.2146 20.311 12.6074 19.1751 11.7158 18.2835C10.8243 17.392 9.68835 16.7848 8.45172 16.5388C7.2151 16.2929 5.9333 16.4191 4.76842 16.9016C3.60354 17.3841 2.6079 18.2012 1.90741 19.2496C1.20691 20.2979 0.833024 21.5305 0.833024 22.7913C0.831156 23.629 0.994775 24.4589 1.31449 25.2332C1.6342 26.0075 2.10371 26.711 2.69605 27.3033C3.2884 27.8957 3.99191 28.3652 4.76621 28.6849C5.5405 29.0046 6.37032 29.1682 7.20802 29.1663ZM22.7914 29.1663C24.0522 29.1663 25.2848 28.7925 26.3331 28.092C27.3815 27.3915 28.1986 26.3958 28.6811 25.231C29.1636 24.0661 29.2898 22.7843 29.0439 21.5476C28.7979 20.311 28.1907 19.1751 27.2992 18.2835C26.4076 17.392 25.2717 16.7848 24.0351 16.5388C22.7984 16.2929 21.5166 16.4191 20.3518 16.9016C19.1869 17.3841 18.1912 18.2012 17.4907 19.2496C16.7902 20.2979 16.4164 21.5305 16.4164 22.7913C16.4145 23.629 16.5781 24.4589 16.8978 25.2332C17.2175 26.0075 17.687 26.711 18.2794 27.3033C18.8717 27.8957 19.5753 28.3652 20.3495 28.6849C21.1238 29.0046 21.9537 29.1682 22.7914 29.1663Z" fill="#D8D9E0"/>
</svg>
