<svg width="20" height="20" viewBox="0 0 20 20" fill="none" xmlns="http://www.w3.org/2000/svg">
<path d="M3.25996 15.0436C2.89979 15.0436 2.60781 14.7516 2.60781 14.3914C2.60781 14.0312 2.89979 13.7393 3.25996 13.7393C3.62013 13.7393 3.91211 14.0312 3.91211 14.3914C3.91211 14.7516 3.62013 15.0436 3.25996 15.0436Z" fill="#68686D"/>
<path d="M11.5217 15.0436C11.1615 15.0436 10.8695 14.7516 10.8695 14.3914C10.8695 14.0312 11.1615 13.7393 11.5217 13.7393C11.8819 13.7393 12.1738 14.0312 12.1738 14.3914C12.1738 14.7516 11.8819 15.0436 11.5217 15.0436Z" fill="#68686D"/>
<path d="M3.26075 11.1325H11.5213C12.2558 11.1325 12.9321 11.3796 13.4778 11.7908V7.87177C13.4778 7.57603 13.6769 7.31727 13.9626 7.24149C14.2475 7.16595 14.5489 7.29157 14.6963 7.54825L19.9135 16.6784C20.1612 17.113 19.8474 17.654 19.3471 17.654H16.7385C15.6713 17.654 14.7251 17.1364 14.1299 16.3415C13.5347 17.1364 12.5886 17.654 11.5213 17.654H3.26075C1.4627 17.654 0 16.1913 0 14.3933C-3.8147e-05 12.5952 1.46266 11.1325 3.26075 11.1325ZM11.5213 16.3497C12.6002 16.3497 13.4778 15.4721 13.4778 14.3933C13.4778 13.3144 12.6002 12.4368 11.5213 12.4368C10.4425 12.4368 9.56487 13.3144 9.56487 14.3933C9.56487 15.4721 10.4425 16.3497 11.5213 16.3497ZM3.26075 16.3497C4.33958 16.3497 5.2172 15.4721 5.2172 14.3933C5.2172 13.3144 4.33958 12.4368 3.26075 12.4368C2.18192 12.4368 1.3043 13.3144 1.3043 14.3933C1.3043 15.4721 2.18192 16.3497 3.26075 16.3497Z" fill="#68686D"/>
<path d="M3.26111 2H7.17401C7.47335 2 7.73405 2.20359 7.80663 2.49399L8.98741 7.21724H9.56523V6.56509C9.56523 6.20486 9.85734 5.91294 10.2174 5.91294C10.5774 5.91294 10.8695 6.20486 10.8695 6.56509V7.57017C11.6479 8.02209 12.1738 8.86279 12.1738 9.82584V9.87791C11.9602 9.84717 11.7437 9.82584 11.5217 9.82584H3.26111C2.56036 9.82584 1.8986 9.9892 1.30466 10.2726V3.95645C1.30462 2.87762 2.18228 2 3.26111 2ZM3.91326 6.56509C3.91326 6.92525 4.20525 7.21724 4.56541 7.21724H7.64311L6.66495 3.30434H4.56541C4.20525 3.30434 3.91326 3.59633 3.91326 3.95649V6.56509Z" fill="#FED65E"/>
</svg>
