<svg width="24" height="24" viewBox="0 0 24 24" fill="none" xmlns="http://www.w3.org/2000/svg">
<path d="M17.88 8.00001H6.12003C5.96691 7.99681 5.81482 8.02563 5.67349 8.08461C5.53215 8.14358 5.40469 8.23142 5.29926 8.3425C5.19383 8.45358 5.11276 8.58545 5.06123 8.72966C5.0097 8.87388 4.98886 9.02727 5.00003 9.18001L5.71003 19.62C5.75611 20.276 6.05288 20.8891 6.53881 21.3322C7.02474 21.7754 7.66256 22.0145 8.32003 22L15.87 21.91C16.5185 21.9008 17.1393 21.6459 17.607 21.1967C18.0748 20.7475 18.3546 20.1376 18.39 19.49L19 9.17001C19.0097 9.01807 18.9878 8.86578 18.9356 8.72276C18.8835 8.57974 18.8022 8.4491 18.6969 8.33913C18.5916 8.22915 18.4646 8.14223 18.324 8.08385C18.1834 8.02548 18.0322 7.99693 17.88 8.00001ZM13.45 17.3H10.55C10.3511 17.3 10.1603 17.221 10.0197 17.0803C9.87905 16.9397 9.80003 16.7489 9.80003 16.55C9.80003 16.3511 9.87905 16.1603 10.0197 16.0197C10.1603 15.879 10.3511 15.8 10.55 15.8H13.45C13.6489 15.8 13.8397 15.879 13.9804 16.0197C14.121 16.1603 14.2 16.3511 14.2 16.55C14.2 16.7489 14.121 16.9397 13.9804 17.0803C13.8397 17.221 13.6489 17.3 13.45 17.3ZM14.23 13.6H9.77003C9.57112 13.6 9.38035 13.521 9.2397 13.3803C9.09905 13.2397 9.02003 13.0489 9.02003 12.85C9.02003 12.6511 9.09905 12.4603 9.2397 12.3197C9.38035 12.179 9.57112 12.1 9.77003 12.1H14.23C14.4289 12.1 14.6197 12.179 14.7604 12.3197C14.901 12.4603 14.98 12.6511 14.98 12.85C14.98 13.0489 14.901 13.2397 14.7604 13.3803C14.6197 13.521 14.4289 13.6 14.23 13.6ZM21 6.52001C20.9704 6.71604 20.8643 6.89237 20.705 7.01043C20.5458 7.12849 20.3462 7.17867 20.15 7.15001C14.7521 6.40754 9.27795 6.40754 3.88003 7.15001H3.75003C3.56189 7.14949 3.38082 7.07829 3.24273 6.95052C3.10463 6.82275 3.0196 6.64775 3.0045 6.46022C2.98939 6.27269 3.04532 6.08633 3.16119 5.93811C3.27706 5.78989 3.4444 5.69062 3.63003 5.66001C3.77003 5.66001 5.46003 5.37001 8.08003 5.20001L8.41003 3.51001C8.49364 3.0838 8.72301 2.69998 9.05876 2.42445C9.39451 2.14892 9.8157 1.99885 10.25 2.00001H13.78C14.2167 2.00166 14.6391 2.15527 14.9749 2.43445C15.3106 2.71363 15.5387 3.10098 15.62 3.53001L15.93 5.21001C17.35 5.30001 18.84 5.44001 20.36 5.67001C20.458 5.6835 20.5523 5.71623 20.6376 5.76632C20.7229 5.81641 20.7974 5.88287 20.8569 5.96187C20.9163 6.04087 20.9596 6.13085 20.9842 6.22664C21.0088 6.32243 21.0141 6.42213 21 6.52001Z" fill="#68686D"/>
</svg>
