<svg width="24" height="20" viewBox="0 0 24 20" fill="none" xmlns="http://www.w3.org/2000/svg">
<path d="M15.4697 6.26583C15.4697 6.21445 15.4635 6.16272 15.4504 6.11176C15.0423 4.50882 13.9487 3.19939 12.5 2.47944V3.75C12.5 4.09515 12.2205 4.375 11.875 4.375C11.5295 4.375 11.25 4.09515 11.25 3.75V2.05048V1.875C11.25 1.52981 10.9702 1.25 10.625 1.25H9.375C9.02981 1.25 8.75 1.52981 8.75 1.875V2.0504V3.75C8.75 4.09515 8.47015 4.375 8.125 4.375C7.77985 4.375 7.5 4.09515 7.5 3.75V2.47944C6.05095 3.19935 4.95739 4.50882 4.54926 6.11176C4.53629 6.16276 4.53167 6.21433 4.53407 6.26545C4.08974 6.33904 3.75 6.7223 3.75 7.1875C3.75 7.70527 4.16973 8.125 4.6875 8.125H15.3125C15.8303 8.125 16.25 7.70527 16.25 7.1875C16.25 6.72359 15.9122 6.34094 15.4697 6.26583Z" fill="#FED65E"/>
<path d="M14.375 9.375H5.625V10C5.625 11.1932 6.10622 12.2752 6.88339 13.0653C6.88141 13.0854 6.875 13.1045 6.875 13.125V14.1772L9.98444 15.5591L13.125 13.9887V13.125C13.125 13.1044 13.1186 13.0853 13.1166 13.0651C13.8937 12.2751 14.375 11.1931 14.375 10V9.375Z" fill="#68686D"/>
<path d="M6.25 18.7504H13.75V15.0742L10.2795 16.8094C10.1917 16.8534 10.0958 16.8754 10 16.8754C9.91364 16.8754 9.82697 16.8574 9.74609 16.8214L6.25 15.2675V18.7504Z" fill="#68686D"/>
<path d="M5.00001 15.0703C3.51167 15.5262 2.21959 16.4814 1.35499 17.7786C1.22712 17.9702 1.21522 18.2168 1.32386 18.4201C1.43281 18.6233 1.6446 18.7503 1.87501 18.7503H5.00001V15.0703Z" fill="#68686D"/>
<path d="M17.0213 9.71937L16.9931 9.375H16.6475H12.0738H11.7283L11.7 9.71937L11.6263 10.6194L11.5993 10.9477L11.9214 11.0167L13.0709 11.263V17.2253L11.9179 17.4841L11.5996 17.5556L11.6263 17.8806L11.7 18.7806L11.7283 19.125H12.0738H16.6475H16.9931L17.0213 18.7806L17.0951 17.8806L17.1218 17.5548L16.8027 17.4839L15.6357 17.2246V11.2636L16.7991 11.0168L17.122 10.9483L17.0951 10.6194L17.0213 9.71937ZM22.6278 9.71937L22.5996 9.375H22.2541H17.6803H17.3348L17.3066 9.71937L17.2328 10.6194L17.2059 10.9477L17.528 11.0167L18.6775 11.263V17.2253L17.5244 17.4841L17.2062 17.5556L17.2328 17.8806L17.3066 18.7806L17.3348 19.125H17.6803H22.2541H22.5996L22.6278 18.7806L22.7016 17.8806L22.7283 17.5548L22.4092 17.4839L21.2422 17.2246V11.2636L22.4057 11.0168L22.7286 10.9483L22.7016 10.6194L22.6278 9.71937Z" fill="#FED65E" stroke="#28282E" stroke-width="0.75"/>
</svg>
