<svg width="20" height="20" viewBox="0 0 20 20" fill="none" xmlns="http://www.w3.org/2000/svg">
<circle cx="7.5" cy="6.5" r="5.5" fill="#FED65E"/>
<path d="M7.55416 1C11.1682 1 14.1083 3.94011 14.1083 7.55381C14.1083 9.13162 13.5508 10.6191 12.5463 11.8007L13.5806 12.8353L13.9536 12.462C14.1597 12.2563 14.4936 12.2563 14.6993 12.462L18.8456 16.6083C19.0513 16.8139 19.0516 17.1479 18.8456 17.3539L17.3539 18.8456C17.1479 19.0513 16.8143 19.0516 16.6083 18.8456L12.4623 14.6993C12.2563 14.4936 12.2563 14.1597 12.4623 13.9536L12.835 13.581L11.8007 12.5463C10.6163 13.5532 9.12775 14.1083 7.55416 14.1083C3.94011 14.1083 1 11.1682 1 7.55381C1 3.94011 3.94011 1 7.55416 1ZM7.55416 4.16406C9.42342 4.16406 10.9443 5.68491 10.9443 7.55416C10.9443 7.84526 11.1805 8.08151 11.4716 8.08151C11.7631 8.08151 11.999 7.84526 11.999 7.55416C11.999 5.10343 10.0049 3.10937 7.55416 3.10937C7.26307 3.10937 7.02682 3.34562 7.02682 3.63671C7.02682 3.92781 7.26307 4.16406 7.55416 4.16406Z" fill="#68686D"/>
<path d="M13.9536 12.4619L12.835 13.5809L12.4623 13.9535C12.2563 14.1596 12.2563 14.4935 12.4623 14.6992L16.6083 18.8455C16.8143 19.0515 17.1479 19.0512 17.3539 18.8455L18.8456 17.3538C19.0516 17.1478 19.0513 16.8138 18.8456 16.6082L14.6993 12.4619C14.4936 12.2562 14.1597 12.2562 13.9536 12.4619Z" fill="#FED65E"/>
</svg>
