<svg width="20" height="20" viewBox="0 0 20 20" fill="none" xmlns="http://www.w3.org/2000/svg">
<g clip-path="url(#clip0_3078_24780)">
<path d="M14.5021 15.8532C14.4682 15.616 14.5296 15.3788 14.597 15.1713C14.6052 15.1458 14.5987 15.1178 14.5797 15.0989C14.5557 15.0748 14.518 15.0713 14.4897 15.0901C13.5965 15.6839 12.5651 15.9979 11.4638 15.9979C10.1179 15.9979 8.83787 15.504 7.81217 14.6104C7.71684 14.5274 7.59566 14.4787 7.46923 14.4787H5.20638C5.00662 14.4787 4.84468 14.3168 4.84468 14.117C4.84468 13.9173 5.00662 13.7553 5.20638 13.7553H6.07947C6.48616 13.7553 6.73318 13.2869 6.55321 12.9222C6.47474 12.7632 6.40356 12.6014 6.34049 12.4384C6.26156 12.2344 6.07025 12.0915 5.85155 12.0915H5.20638C5.00662 12.0915 4.84468 11.9295 4.84468 11.7298C4.84468 11.53 5.00662 11.3681 5.20638 11.3681H5.50808C5.80883 11.3681 6.03567 11.105 6.01395 10.805C6.00659 10.7033 6.00213 10.6017 6.00213 10.5C6.00213 10.4074 6.00583 10.3185 6.01205 10.2309C6.03337 9.93095 5.80883 9.66809 5.50808 9.66809H5.20638C5.00662 9.66809 4.84468 9.50615 4.84468 9.30638C4.84468 9.10662 5.00662 8.94468 5.20638 8.94468H5.84503C6.06683 8.94468 6.25974 8.79755 6.33815 8.59007C6.40035 8.42545 6.4705 8.26595 6.54782 8.11077C6.72917 7.74676 6.48616 7.28085 6.07947 7.28085H5.20638C5.00662 7.28085 4.84468 7.11891 4.84468 6.91915C4.84468 6.71939 5.00662 6.55745 5.20638 6.55745H7.46397C7.59354 6.55745 7.71745 6.50635 7.81371 6.41961C8.83923 5.49554 10.1203 5.00213 11.5 5.00213C12.5187 5.00213 13.4996 5.28505 14.3475 5.79641C14.7213 6.02189 15.2617 5.77508 15.2617 5.3385V2.5C15.2617 2.22386 15.0378 2 14.7617 2H3.5C3.22386 2 3 2.22386 3 2.5V18.5C3 18.7761 3.22386 19 3.5 19H14.7255C15.0017 19 15.2255 18.7761 15.2255 18.5V17.3986C15.2255 17.266 15.1729 17.1388 15.0791 17.045L15.0085 16.9745C14.7191 16.6489 14.5383 16.2872 14.5021 15.8532ZM4.84468 4.49574C4.84468 4.29598 5.00662 4.13404 5.20638 4.13404H13.0553C13.2551 4.13404 13.417 4.29598 13.417 4.49574C13.417 4.69551 13.2551 4.85745 13.0553 4.85745H5.20638C5.00662 4.85745 4.84468 4.69551 4.84468 4.49574ZM13.417 16.5043C13.417 16.704 13.2551 16.866 13.0553 16.866H5.20638C5.00662 16.866 4.84468 16.704 4.84468 16.5043C4.84468 16.3045 5.00662 16.1426 5.20638 16.1426H13.0553C13.2551 16.1426 13.417 16.3045 13.417 16.5043Z" fill="#68686D"/>
<path d="M19.6746 16.7214L17.5043 14.515C17.1065 14.1171 16.5639 14.0809 16.2384 14.4065L16.0937 14.5512L15.1171 13.5746L15.1533 13.5384C16.6363 11.766 16.6363 9.19796 15.1533 7.42562C15.0448 7.31711 14.9724 7.2086 14.8639 7.10009C13.0192 5.21924 9.98094 5.21924 8.10009 7.10009C6.21924 8.98094 6.21924 11.9831 8.10009 13.8639C9.00435 14.7682 10.198 15.2746 11.4639 15.2746C12.6214 15.2746 13.7065 14.8767 14.5746 14.1171L15.5512 15.0575L15.4426 15.2022C15.1171 15.5278 15.1533 16.0703 15.5512 16.4682L17.7214 18.6746C17.9384 18.8916 18.1916 19.0001 18.4448 19.0001C18.6618 19.0001 18.8426 18.9278 18.9873 18.7831L19.7831 17.9873C20.1086 17.6618 20.0724 17.0831 19.6746 16.7214ZM13.3809 8.58307C12.8746 8.07669 12.1873 7.78733 11.4639 7.78733C10.7405 7.78733 10.0533 8.07669 9.5469 8.58307L9.04052 8.07669C9.69158 7.42562 10.5597 7.06392 11.4639 7.06392C12.3682 7.06392 13.2363 7.42562 13.8873 8.07669L13.3809 8.58307Z" fill="#FED65E"/>
</g>
<defs>
<clipPath id="clip0_3078_24780">
<rect width="20" height="20" fill="white"/>
</clipPath>
</defs>
</svg>
