<svg width="20" height="20" viewBox="0 0 20 20" fill="none" xmlns="http://www.w3.org/2000/svg">
<path d="M6.86328 9.81922L6.86331 9.81934C6.8726 9.80996 6.87198 9.81052 6.86328 9.81922Z" fill="black"/>
<path d="M18.6482 7.60796L17.8525 7.41663C17.6795 6.66131 17.3815 5.94353 16.9649 5.27614L17.3682 4.59911C17.4781 4.41465 17.4483 4.17934 17.2968 4.02782L15.9752 2.70625C15.8237 2.5552 15.5889 2.52497 15.4039 2.63483L14.7269 3.0381C14.0595 2.62155 13.3417 2.32354 12.5864 2.15052L12.3951 1.3548C12.3429 1.14652 12.1557 1 11.9405 1H10.0655C9.85036 1 9.66315 1.14649 9.61096 1.3548L9.41962 2.15052C8.6643 2.32354 7.94653 2.62155 7.27913 3.0381L6.60211 2.63483C6.41764 2.52494 6.18233 2.55473 6.03081 2.70625L4.70918 4.02779C4.55766 4.17931 4.5279 4.41459 4.63776 4.59908L5.04103 5.2761C4.62448 5.9435 4.32647 6.66128 4.15345 7.4166L3.35772 7.60793C3.14945 7.66013 3.00293 7.84734 3.00293 8.06249V9.93748C3.00293 10.1526 3.14942 10.3403 3.35816 10.392L4.15389 10.5834C4.26925 11.0839 4.44286 11.5647 4.66583 12.0259C5.01009 11.6802 6.73912 9.94379 6.86339 9.81968C6.85726 9.78812 6.79029 9.1877 6.7885 9.07074C6.74862 6.6821 8.67259 4.78167 11.0048 4.78167C13.353 4.78167 15.2254 6.6751 15.2166 9.01461C15.2065 11.1782 13.5916 13.0202 11.3362 13.1886C11.2387 13.1961 10.7975 13.2612 10.1827 13.14L7.98269 15.34C8.44212 15.5616 8.92115 15.7341 9.41959 15.849L9.61092 16.6452C9.66312 16.8535 9.85033 17 10.0655 17H11.9405C12.1556 17 12.3428 16.8535 12.395 16.6452L12.5864 15.8495C13.3417 15.6765 14.0595 15.3785 14.7269 14.9619L15.4039 15.3652C15.5874 15.4751 15.8232 15.4448 15.9752 15.2938L17.2967 13.9722C17.4483 13.8207 17.478 13.5854 17.3682 13.4009L16.9649 12.7239C17.3819 12.0565 17.6794 11.3387 17.8525 10.5829L18.6477 10.392C18.8565 10.3403 19.003 10.1526 19.003 9.93748V8.06249C19.003 7.84737 18.8565 7.66013 18.6482 7.60796Z" fill="#68686D"/>
<path d="M14.1739 8.14289C14.1327 7.9815 14.0081 7.85455 13.8474 7.81054C13.6868 7.76647 13.5152 7.81238 13.3974 7.93015L12.3277 8.99988C11.9621 9.36552 11.3677 9.36552 11.002 8.99988C10.6367 8.63458 10.6367 8.03951 11.002 7.67418L12.0722 6.60404C12.1899 6.48628 12.2354 6.31438 12.1914 6.15383C12.1473 5.99328 12.0205 5.86848 11.8591 5.82748C9.88121 5.32482 8.10123 6.6132 7.77478 8.3924C7.66996 8.97834 7.71665 9.56198 7.90843 10.0994C7.6417 10.3661 3.52199 14.4858 3.41126 14.5966C2.86147 15.1464 2.86147 16.0408 3.41995 16.5993C3.97321 17.1238 4.82053 17.1458 5.40526 16.5906L9.90246 12.0934C10.6226 12.3505 11.4258 12.3452 12.2118 12.0679C13.6281 11.5681 14.6193 9.89096 14.1739 8.14289Z" fill="#FED65E"/>
</svg>
