<svg width="16" height="18" viewBox="0 0 16 18" fill="none" xmlns="http://www.w3.org/2000/svg">
<path d="M7.57501 8.96667C9.85319 8.96667 11.7 7.11984 11.7 4.84167C11.7 2.56349 9.85319 0.716667 7.57501 0.716667C5.29684 0.716667 3.45001 2.56349 3.45001 4.84167C3.45001 7.11984 5.29684 8.96667 7.57501 8.96667Z" fill="#FED65E"/>
<path d="M12.525 9.83334C11.8639 9.83339 11.2178 10.03 10.6688 10.3981C10.1198 10.7663 9.69261 11.2893 9.44158 11.9009C9.19056 12.5124 9.12703 13.1847 9.25906 13.8324C9.39109 14.4802 9.71272 15.074 10.1831 15.5385C10.6534 16.0029 11.2513 16.3171 11.9006 16.441C12.5499 16.5648 13.2214 16.4928 13.8297 16.2341C14.438 15.9755 14.9557 15.5417 15.3169 14.9881C15.6781 14.4345 15.8666 13.786 15.8583 13.125C15.8473 12.2482 15.4913 11.411 14.8674 10.7949C14.2434 10.1787 13.4019 9.83327 12.525 9.83334ZM14.2916 12.7L12.8833 14.5C12.8247 14.5719 12.7511 14.6301 12.6676 14.6704C12.5841 14.7107 12.4927 14.7322 12.4 14.7333C12.3049 14.7337 12.2111 14.712 12.1258 14.6701C12.0405 14.6282 11.9661 14.5671 11.9083 14.4917L10.9 13.1667C10.8093 13.0398 10.7701 12.8833 10.7902 12.7287C10.8103 12.5741 10.8882 12.4328 11.0083 12.3333C11.1352 12.2427 11.2917 12.2035 11.4463 12.2236C11.6009 12.2437 11.7422 12.3216 11.8416 12.4417L12.3666 13.1083L13.2833 11.9417C13.3331 11.8776 13.395 11.8241 13.4655 11.784C13.536 11.7439 13.6137 11.7181 13.6942 11.708C13.7747 11.698 13.8563 11.7038 13.9345 11.7253C14.0128 11.7468 14.0859 11.7835 14.15 11.8333C14.214 11.8831 14.2676 11.945 14.3077 12.0155C14.3478 12.086 14.3736 12.1638 14.3836 12.2442C14.3937 12.3247 14.3878 12.4064 14.3663 12.4846C14.3448 12.5628 14.3081 12.636 14.2583 12.7H14.2916Z" fill="#68686D"/>
<path d="M14.9667 16.3083C14.7808 15.2691 14.3238 14.2974 13.6417 13.4917L12.8833 14.4583C12.8248 14.5302 12.7511 14.5884 12.6676 14.6287C12.5841 14.6691 12.4927 14.6905 12.4 14.6917C12.305 14.692 12.2111 14.6704 12.1258 14.6284C12.0406 14.5865 11.9661 14.5254 11.9083 14.45L10.9 13.1667C10.834 13.0814 10.7921 12.9799 10.7789 12.8728C10.7657 12.7657 10.7817 12.6571 10.825 12.5583C10.7836 12.462 10.7681 12.3564 10.7802 12.2522C10.7923 12.148 10.8315 12.0488 10.8939 11.9645C10.9563 11.8802 11.0397 11.8137 11.1358 11.7717C11.2319 11.7297 11.3374 11.7136 11.4417 11.725C10.247 11.1063 8.92032 10.7861 7.57499 10.7917C3.83332 10.7833 0.716656 13.1667 0.183323 16.3083C0.170981 16.4439 0.188169 16.5805 0.233703 16.7088C0.279237 16.837 0.352035 16.9539 0.447082 17.0513C0.542129 17.1487 0.657166 17.2244 0.784267 17.2731C0.911368 17.3218 1.04751 17.3423 1.18332 17.3333H13.975C14.1101 17.3411 14.2453 17.3196 14.3714 17.2703C14.4975 17.2211 14.6115 17.1453 14.7056 17.048C14.7997 16.9507 14.8717 16.8343 14.9168 16.7066C14.9619 16.579 14.9789 16.4431 14.9667 16.3083Z" fill="#68686D"/>
</svg>
