<svg width="18" height="18" viewBox="0 0 18 18" fill="none" xmlns="http://www.w3.org/2000/svg">
<path d="M12.3505 0.64419L5.56724 0.680892C2.82427 0.695733 0.612678 2.93138 0.627519 5.67436L0.66395 12.4076C0.678791 15.1506 2.91444 17.3622 5.65742 17.3473L12.4406 17.3106C15.1836 17.2958 17.3952 15.0601 17.3804 12.3171L17.3439 5.58391C17.3291 2.84094 15.0934 0.629349 12.3505 0.64419Z" fill="#68686D"/>
<path d="M8.99998 12.0917C10.7489 12.0917 12.1666 10.6739 12.1666 8.925C12.1666 7.1761 10.7489 5.75833 8.99998 5.75833C7.25108 5.75833 5.83331 7.1761 5.83331 8.925C5.83331 10.6739 7.25108 12.0917 8.99998 12.0917Z" fill="#FED65E"/>
<path d="M14.4166 16.8917C14.0223 15.7699 13.2893 14.7982 12.3191 14.1109C11.3488 13.4235 10.1891 13.0543 8.99998 13.0543C7.8109 13.0543 6.65116 13.4235 5.68089 14.1109C4.71062 14.7982 3.97769 15.7699 3.58331 16.8917C4.23689 17.1901 4.94819 17.3409 5.66665 17.3333H12.4416C13.123 17.3204 13.7947 17.1702 14.4166 16.8917Z" fill="#FED65E"/>
</svg>
