<svg width="20" height="20" viewBox="0 0 20 20" fill="none" xmlns="http://www.w3.org/2000/svg">
<path d="M2.33313 9.05052V13.7839C2.32873 14.3798 2.44231 14.9707 2.66733 15.5225C2.89234 16.0744 3.22434 16.5762 3.64419 16.9992C4.06404 17.4221 4.56344 17.7578 5.11361 17.9869C5.66378 18.2159 6.25385 18.3339 6.8498 18.3339H13.1498C13.7429 18.3339 14.3303 18.217 14.8783 17.99C15.4262 17.7631 15.9242 17.4304 16.3436 17.011C16.763 16.5915 17.0957 16.0936 17.3227 15.5456C17.5496 14.9977 17.6665 14.4103 17.6665 13.8172V9.05052C17.6665 8.86929 17.5945 8.69548 17.4663 8.56733C17.3382 8.43918 17.1644 8.36719 16.9831 8.36719H3.01646C2.83523 8.36719 2.66142 8.43918 2.53327 8.56733C2.40512 8.69548 2.33313 8.86929 2.33313 9.05052Z" fill="#68686D"/>
<path d="M17.3752 6.29212C17.4144 6.39575 17.4278 6.50734 17.4143 6.61729C17.4007 6.72724 17.3607 6.83225 17.2975 6.92328C17.2344 7.0143 17.1501 7.08861 17.0518 7.1398C16.9536 7.19099 16.8443 7.21753 16.7336 7.21712H3.40023C3.26653 7.21407 3.13554 7.17888 3.01831 7.11453C2.90107 7.05019 2.80105 6.95858 2.72668 6.84743C2.65231 6.73629 2.60578 6.60888 2.59103 6.47597C2.57627 6.34305 2.59372 6.20854 2.64189 6.08379C2.89205 5.4812 3.26957 4.93984 3.74855 4.49681C4.22753 4.05379 4.79665 3.71959 5.41689 3.51712V2.20879C5.42334 2.06287 5.48587 1.92508 5.59145 1.82416C5.69703 1.72324 5.8375 1.66698 5.98356 1.66712C6.13606 1.66712 6.28231 1.7277 6.39015 1.83554C6.49798 1.94337 6.55856 2.08962 6.55856 2.24212V3.33379C6.65023 3.33379 6.73356 3.33379 6.82523 3.33379H9.55023V2.20879C9.55023 2.05629 9.61081 1.91004 9.71864 1.8022C9.82648 1.69437 9.97273 1.63379 10.1252 1.63379C10.2777 1.63379 10.424 1.69437 10.5318 1.8022C10.6396 1.91004 10.7002 2.05629 10.7002 2.20879V3.27546H13.1169C13.2086 3.27546 13.2919 3.27546 13.3836 3.27546V2.20879C13.39 2.06287 13.4525 1.92508 13.5581 1.82416C13.6637 1.72324 13.8042 1.66698 13.9502 1.66712C14.1027 1.66712 14.249 1.7277 14.3568 1.83554C14.4646 1.94337 14.5252 2.08962 14.5252 2.24212V3.51712C15.1806 3.73145 15.7782 4.09297 16.2722 4.57398C16.7662 5.05499 17.1435 5.64272 17.3752 6.29212Z" fill="#FED65E"/>
<path d="M7.27526 12.2174C7.67106 12.2174 7.99193 11.9003 7.99193 11.5091C7.99193 11.1179 7.67106 10.8008 7.27526 10.8008C6.87946 10.8008 6.55859 11.1179 6.55859 11.5091C6.55859 11.9003 6.87946 12.2174 7.27526 12.2174Z" fill="#FED65E"/>
<path d="M9.95006 12.2174C10.3459 12.2174 10.6667 11.9003 10.6667 11.5091C10.6667 11.1179 10.3459 10.8008 9.95006 10.8008C9.55426 10.8008 9.2334 11.1179 9.2334 11.5091C9.2334 11.9003 9.55426 12.2174 9.95006 12.2174Z" fill="#FED65E"/>
<path d="M7.26647 14.8835C7.66228 14.8835 7.98314 14.5663 7.98314 14.1751C7.98314 13.7839 7.66228 13.4668 7.26647 13.4668C6.87067 13.4668 6.5498 13.7839 6.5498 14.1751C6.5498 14.5663 6.87067 14.8835 7.26647 14.8835Z" fill="#FED65E"/>
</svg>
