<svg width="18" height="18" viewBox="0 0 18 18" fill="none" xmlns="http://www.w3.org/2000/svg">
<path opacity="0.9" d="M6.52501 8.5C8.70654 8.5 10.475 6.74645 10.475 4.58333C10.475 2.42022 8.70654 0.666666 6.52501 0.666666C4.34349 0.666666 2.57501 2.42022 2.57501 4.58333C2.57501 6.74645 4.34349 8.5 6.52501 8.5Z" fill="#68686D"/>
<path d="M6.52502 17.3333C9.76049 17.3333 12.3834 15.5798 12.3834 13.4167C12.3834 11.2535 9.76049 9.5 6.52502 9.5C3.28955 9.5 0.666687 11.2535 0.666687 13.4167C0.666687 15.5798 3.28955 17.3333 6.52502 17.3333Z" fill="#68686D"/>
<path d="M12.6584 2.33333C12.1999 2.33386 11.7473 2.43633 11.3334 2.63333C11.6827 3.48096 11.7958 4.40737 11.6608 5.31414C11.5258 6.22092 11.1477 7.0742 10.5667 7.78333C10.9437 8.12661 11.3987 8.37271 11.8923 8.50028C12.386 8.62785 12.9033 8.63304 13.3994 8.51539C13.8954 8.39775 14.3553 8.16082 14.7391 7.82518C15.1229 7.48953 15.419 7.06531 15.6016 6.58932C15.7843 6.11332 15.8481 5.59994 15.7874 5.09372C15.7267 4.5875 15.5435 4.10373 15.2535 3.68439C14.9635 3.26506 14.5755 2.92282 14.1233 2.68738C13.6711 2.45194 13.1682 2.33041 12.6584 2.33333Z" fill="#FED65E"/>
<path d="M12.6583 9.41667C12.1908 9.41627 11.7245 9.46374 11.2667 9.55833C11.9551 9.94826 12.5328 10.5071 12.9454 11.1821C13.358 11.8572 13.5919 12.6262 13.625 13.4167C13.6213 14.2185 13.3807 15.0012 12.9333 15.6667C15.3833 15.575 17.3333 14.2167 17.3333 12.55C17.3333 10.8833 15.2417 9.41667 12.6583 9.41667Z" fill="#FED65E"/>
</svg>
