<svg width="15" height="15" viewBox="0 0 15 15" fill="none" xmlns="http://www.w3.org/2000/svg">
<path d="M5.09289 0.333328H1.58695C0.894587 0.333328 0.333313 0.894602 0.333313 1.58697V5.09291C0.333313 5.78527 0.894587 6.34655 1.58695 6.34655H5.09289C5.78526 6.34655 6.34653 5.78527 6.34653 5.09291V1.58697C6.34653 0.894602 5.78526 0.333328 5.09289 0.333328Z" fill="#FED65E"/>
<path d="M13.2451 0.333328H9.73911C9.04675 0.333328 8.48547 0.894602 8.48547 1.58697V5.09291C8.48547 5.78527 9.04675 6.34655 9.73911 6.34655H13.2451C13.9374 6.34655 14.4987 5.78527 14.4987 5.09291V1.58697C14.4987 0.894602 13.9374 0.333328 13.2451 0.333328Z" fill="#707175"/>
<path d="M13.2379 8.47844H9.73197C9.03961 8.47844 8.47833 9.03971 8.47833 9.73208V13.238C8.47833 13.9304 9.03961 14.4917 9.73197 14.4917H13.2379C13.9303 14.4917 14.4916 13.9304 14.4916 13.238V9.73208C14.4916 9.03971 13.9303 8.47844 13.2379 8.47844Z" fill="#FED65E"/>
<path d="M5.09289 8.47844H1.58695C0.894587 8.47844 0.333313 9.03971 0.333313 9.73208V13.238C0.333313 13.9304 0.894587 14.4917 1.58695 14.4917H5.09289C5.78526 14.4917 6.34653 13.9304 6.34653 13.238V9.73208C6.34653 9.03971 5.78526 8.47844 5.09289 8.47844Z" fill="#707175"/>
</svg>
