<svg width="20" height="20" viewBox="0 0 20 20" fill="none" xmlns="http://www.w3.org/2000/svg">
<path d="M14.82 0H5.18C3.80618 0 2.48863 0.545748 1.51719 1.51719C0.545748 2.48863 0 3.80618 0 5.18V19C0 19.2652 0.105357 19.5196 0.292893 19.7071C0.48043 19.8946 0.734784 20 1 20H14.8C15.4819 20.0026 16.1577 19.8706 16.7884 19.6115C17.4192 19.3523 17.9926 18.9712 18.4757 18.4899C18.9589 18.0086 19.3422 17.4367 19.6038 16.8069C19.8654 16.1772 20 15.5019 20 14.82V5.18C20 4.49975 19.866 3.82617 19.6057 3.1977C19.3454 2.56923 18.9638 1.99819 18.4828 1.51719C18.0018 1.03618 17.4308 0.654623 16.8023 0.394304C16.1738 0.133985 15.5002 0 14.82 0ZM10 14.62C9.77642 14.9222 9.46048 15.1434 9.1 15.25L6.77 16C6.55592 16.0546 6.33205 16.0585 6.11619 16.0114C5.90033 15.9643 5.69844 15.8675 5.52659 15.7286C5.35473 15.5898 5.21764 15.4128 5.12622 15.2116C5.03481 15.0105 4.99159 14.7908 5 14.57V12.05C5.00449 11.6737 5.12304 11.3075 5.34 11L8.14 7.22C8.50737 8.21723 9.15286 9.08829 10 9.73C10.8251 10.3702 11.819 10.756 12.86 10.84L10 14.62ZM14.63 8.36L13.89 9.36C13.3451 9.47027 12.7828 9.46028 12.2422 9.33074C11.7015 9.2012 11.1957 8.95523 10.76 8.61C10.3127 8.26831 9.9425 7.83606 9.67368 7.3415C9.40486 6.84694 9.24345 6.30122 9.2 5.74L9.94 4.74C10.0862 4.53738 10.2717 4.3663 10.4855 4.23696C10.6993 4.10762 10.937 4.02269 11.1843 3.98722C11.4316 3.95175 11.6836 3.96648 11.9251 4.03053C12.1666 4.09458 12.3927 4.20663 12.59 4.36L14.26 5.65C14.659 5.96601 14.9225 6.42225 14.9968 6.92577C15.0711 7.42928 14.9507 7.94219 14.66 8.36H14.63Z" fill="#28282E"/>
</svg>
