<svg width="18" height="18" viewBox="0 0 18 18" fill="none" xmlns="http://www.w3.org/2000/svg">
<path d="M14.4697 5.26583C14.4697 5.21445 14.4635 5.16272 14.4504 5.11176C14.0423 3.50882 12.9487 2.19939 11.5 1.47944V2.75C11.5 3.09515 11.2205 3.375 10.875 3.375C10.5295 3.375 10.25 3.09515 10.25 2.75V1.05048V0.875C10.25 0.529808 9.97019 0.25 9.625 0.25H8.375C8.02981 0.25 7.75 0.529808 7.75 0.875V1.0504V2.75C7.75 3.09515 7.47015 3.375 7.125 3.375C6.77985 3.375 6.5 3.09515 6.5 2.75V1.47944C5.05095 2.19935 3.95739 3.50882 3.54926 5.11176C3.53629 5.16276 3.53167 5.21433 3.53407 5.26545C3.08974 5.33904 2.75 5.7223 2.75 6.1875C2.75 6.70527 3.16973 7.125 3.6875 7.125H14.3125C14.8303 7.125 15.25 6.70527 15.25 6.1875C15.25 5.72359 14.9122 5.34094 14.4697 5.26583Z" fill="#FED65E"/>
<path d="M13.375 8.375H4.625V9C4.625 10.1932 5.10622 11.2752 5.88339 12.0653C5.88141 12.0854 5.875 12.1045 5.875 12.125V13.1772L8.98444 14.5591L12.125 12.9887V12.125C12.125 12.1044 12.1186 12.0853 12.1166 12.0651C12.8937 11.2751 13.375 10.1931 13.375 9V8.375Z" fill="#68686D"/>
<path d="M5.25 17.7504H12.75V14.0742L9.27954 15.8094C9.19165 15.8534 9.09583 15.8754 9 15.8754C8.91364 15.8754 8.82697 15.8574 8.74609 15.8214L5.25 14.2675V17.7504Z" fill="#68686D"/>
<path d="M4.00001 14.0703C2.51167 14.5262 1.21959 15.4814 0.354989 16.7786C0.227121 16.9702 0.215219 17.2168 0.323861 17.4201C0.432809 17.6233 0.644601 17.7503 0.875009 17.7503H4.00001V14.0703Z" fill="#68686D"/>
<path d="M17.645 16.7785C16.7805 15.4814 15.4885 14.5262 14 14.0703V17.7502H17.125C17.3557 17.7502 17.5675 17.6232 17.6761 17.42C17.7848 17.2168 17.7726 16.9702 17.645 16.7785Z" fill="#68686D"/>
</svg>
