<svg width="16" height="18" viewBox="0 0 16 18" fill="none" xmlns="http://www.w3.org/2000/svg">
<path d="M2.80834 7.33341L7.08334 0.666748H2.69167C2.20611 0.666728 1.74018 0.858471 1.39528 1.20025C1.05037 1.54204 0.854402 2.0062 0.850007 2.49175V4.56675C0.847158 5.04982 1.03595 5.51431 1.37501 5.85841L2.80834 7.33341Z" fill="#2E2F34"/>
<path opacity="0.3" d="M13.3083 0.666748H8.57501L3.70834 8.22508L4.54168 9.05841C5.13342 9.6579 5.46567 10.4661 5.46668 11.3084V15.6667C5.45292 15.9841 5.53011 16.2987 5.68916 16.5736C5.84822 16.8485 6.08251 17.0722 6.36445 17.2185C6.64639 17.3647 6.96425 17.4273 7.28058 17.399C7.59692 17.3706 7.89857 17.2525 8.15001 17.0584L9.29168 16.2251C9.50006 16.0783 9.67014 15.8836 9.78761 15.6573C9.90507 15.4311 9.96648 15.18 9.96668 14.9251V11.4167C9.96012 10.9633 10.0495 10.5135 10.2291 10.097C10.4086 9.68052 10.6742 9.3067 11.0083 9.00008L14.5333 5.85841C14.7296 5.68577 14.8863 5.47281 14.9927 5.23408C15.0991 4.99534 15.1528 4.73645 15.15 4.47508V2.49175C15.1456 2.0062 14.9496 1.54204 14.6047 1.20025C14.2598 0.858471 13.7939 0.666728 13.3083 0.666748Z" fill="#2E2F34"/>
</svg>
