<svg xmlns="http://www.w3.org/2000/svg" viewBox="0 0 32 32" id="image">
  <path d="m28.23,10.86c0-.44-.05-.87-.14-1.29-.45-2.31-2.27-4.13-4.59-4.57-.41-.09-.84-.14-1.27-.14h-11.1c-.44,0-.86.05-1.27.14-2.32.44-4.16,2.28-4.6,4.61-.09.4-.13.82-.13,1.25v11.1c0,.43.05.85.13,1.25.44,2.33,2.27,4.17,4.6,4.61.41.09.83.14,1.27.14h11.1c.44,0,.86-.05,1.27-.14,2.31-.44,4.14-2.26,4.58-4.57.09-.42.14-.85.14-1.29v-11.1Zm-14.46,1.17c0,1.13-.92,2.05-2.05,2.05s-2.05-.92-2.05-2.05.92-2.05,2.05-2.05,2.05.92,2.05,2.05Zm-3.15,7.54c.61-.49,1.45-.56,2.13-.17l2.44,1.38c.78.44,1.76.28,2.35-.39l4.14-4.59c.77-.86,2.11-.84,2.86.02l1.66,1.92v4.42c0,2.08-1.69,3.78-3.78,3.78h-11.48c-2.03,0-3.69-1.61-3.77-3.62l3.45-2.75Z"></path>
</svg>
