<svg width="18" height="18" viewBox="0 0 18 18" fill="none" xmlns="http://www.w3.org/2000/svg">
<path d="M12.3917 0.666672H5.63335C2.89034 0.666672 0.666687 2.89032 0.666687 5.63334V12.3667C0.666687 15.1097 2.89034 17.3333 5.63335 17.3333H12.3917C15.1347 17.3333 17.3584 15.1097 17.3584 12.3667V5.63334C17.3584 2.89032 15.1347 0.666672 12.3917 0.666672Z" fill="#68686D"/>
<path d="M5.31668 11.4083C5.23648 11.4092 5.1569 11.3941 5.08254 11.3641C5.00817 11.3341 4.94047 11.2896 4.88334 11.2333C4.7663 11.1161 4.70056 10.9573 4.70056 10.7917C4.70056 10.626 4.7663 10.4672 4.88334 10.35L6.87501 8.26667C7.10722 8.03233 7.41807 7.8924 7.74746 7.87393C8.07685 7.85546 8.40139 7.95976 8.65834 8.16667L9.95001 9.21667C9.95701 9.22398 9.96542 9.2298 9.97473 9.23377C9.98404 9.23774 9.99406 9.23979 10.0042 9.23979C10.0143 9.23979 10.0243 9.23774 10.0336 9.23377C10.0429 9.2298 10.0513 9.22398 10.0583 9.21667L12.25 6.8C12.3672 6.68296 12.5261 6.61722 12.6917 6.61722C12.8573 6.61722 13.0162 6.68296 13.1333 6.8C13.2504 6.91719 13.3161 7.07604 13.3161 7.24167C13.3161 7.40729 13.2504 7.56615 13.1333 7.68333L10.95 10.075C10.7203 10.3253 10.4041 10.4791 10.0654 10.5054C9.7267 10.5317 9.39062 10.4285 9.12501 10.2167L7.84168 9.16667C7.83468 9.15936 7.82627 9.15354 7.81696 9.14957C7.80765 9.14559 7.79763 9.14354 7.78751 9.14354C7.77739 9.14354 7.76737 9.14559 7.75806 9.14957C7.74875 9.15354 7.74035 9.15936 7.73334 9.16667L5.73334 11.25C5.61746 11.3502 5.46989 11.4063 5.31668 11.4083Z" fill="#FED65E"/>
</svg>
