<svg width="18" height="18" viewBox="0 0 18 18" fill="none" xmlns="http://www.w3.org/2000/svg">
<path d="M13.05 0.666664H4.94169C2.58067 0.666664 0.666687 2.58065 0.666687 4.94166V13.05C0.666687 15.411 2.58067 17.325 4.94169 17.325H13.05C15.411 17.325 17.325 15.411 17.325 13.05V4.94166C17.325 2.58065 15.411 0.666664 13.05 0.666664Z" fill="#68686D"/>
<path d="M6.01666 7.45833C6.18175 7.45617 6.33947 7.38963 6.45622 7.27288C6.57296 7.15614 6.6395 6.99842 6.64166 6.83333V3.58333C6.64166 3.41757 6.57581 3.2586 6.4586 3.14139C6.34139 3.02418 6.18242 2.95833 6.01666 2.95833C5.8509 2.95833 5.69193 3.02418 5.57472 3.14139C5.45751 3.2586 5.39166 3.41757 5.39166 3.58333V6.83333C5.39382 6.99842 5.46036 7.15614 5.57711 7.27288C5.69385 7.38963 5.85157 7.45617 6.01666 7.45833Z" fill="#FED65E"/>
<path d="M6.01669 8.29167C5.46736 8.28773 4.9353 8.48342 4.51943 8.84235C4.10357 9.20128 3.83221 9.69902 3.7558 10.243C3.6794 10.787 3.80315 11.3403 4.10405 11.7998C4.40496 12.2594 4.86253 12.5941 5.39169 12.7417V14.4083C5.39056 14.4907 5.40596 14.5725 5.43698 14.6488C5.46799 14.7252 5.51398 14.7945 5.57225 14.8528C5.63051 14.911 5.69985 14.957 5.77619 14.988C5.85252 15.0191 5.9343 15.0345 6.01669 15.0333C6.18177 15.0312 6.33949 14.9646 6.45624 14.8479C6.57299 14.7311 6.63953 14.5734 6.64169 14.4083V12.7417C7.17084 12.5941 7.62841 12.2594 7.92932 11.7998C8.23022 11.3403 8.35397 10.787 8.27757 10.243C8.20116 9.69902 7.9298 9.20128 7.51394 8.84235C7.09807 8.48342 6.56601 8.28773 6.01669 8.29167Z" fill="#FED65E"/>
<path d="M11.9833 10.5417C11.8182 10.5438 11.6605 10.6104 11.5438 10.7271C11.427 10.8439 11.3605 11.0016 11.3583 11.1667V14.4167C11.3583 14.5824 11.4242 14.7414 11.5414 14.8586C11.6586 14.9758 11.8176 15.0417 11.9833 15.0417C12.1491 15.0417 12.3081 14.9758 12.4253 14.8586C12.5425 14.7414 12.6083 14.5824 12.6083 14.4167V11.1667C12.6062 11.0016 12.5396 10.8439 12.4229 10.7271C12.3061 10.6104 12.1484 10.5438 11.9833 10.5417Z" fill="#FED65E"/>
<path d="M12.6084 5.25833V3.59166C12.6062 3.42657 12.5397 3.26885 12.4229 3.15211C12.3062 3.03536 12.1485 2.96882 11.9834 2.96666C11.901 2.96554 11.8192 2.98094 11.7429 3.01195C11.6665 3.04297 11.5972 3.08896 11.5389 3.14722C11.4807 3.20548 11.4347 3.27483 11.4037 3.35117C11.3727 3.4275 11.3573 3.50928 11.3584 3.59166V5.25833C10.8308 5.40907 10.3755 5.74542 10.0763 6.20538C9.77711 6.66535 9.65426 7.21795 9.73037 7.76134C9.80648 8.30474 10.0764 8.80232 10.4904 9.1624C10.9045 9.52248 11.4347 9.72079 11.9834 9.72079C12.5321 9.72079 13.0623 9.52248 13.4763 9.1624C13.8903 8.80232 14.1603 8.30474 14.2364 7.76134C14.3125 7.21795 14.1896 6.66535 13.8905 6.20538C13.5913 5.74542 13.136 5.40907 12.6084 5.25833Z" fill="#FED65E"/>
</svg>
