<svg width="18" height="16" viewBox="0 0 18 16" fill="none" xmlns="http://www.w3.org/2000/svg">
<path d="M15.8166 5.7H14.6583C14.4519 5.18161 14.1711 4.69598 13.825 4.25834L14.3916 3.275C14.5944 2.91989 14.6486 2.49905 14.5425 2.10415C14.4363 1.70925 14.1784 1.37229 13.825 1.16667L12.4666 0.383338C12.2911 0.281838 12.0972 0.215976 11.8961 0.189525C11.6951 0.163075 11.4908 0.176556 11.2949 0.229195C11.0991 0.281835 10.9155 0.372599 10.7548 0.496288C10.5941 0.619977 10.4593 0.77416 10.3583 0.950005L9.78332 1.95C9.52392 1.91092 9.26226 1.88865 8.99998 1.88334C8.73789 1.88589 8.47623 1.90537 8.21665 1.94167L7.65832 0.950005C7.4571 0.594277 7.12286 0.333005 6.72907 0.22362C6.33529 0.114235 5.91418 0.165689 5.55832 0.366671L4.19165 1.14167C3.83592 1.34289 3.57465 1.67713 3.46527 2.07092C3.35588 2.4647 3.40733 2.88581 3.60832 3.24167L4.17498 4.25C3.83375 4.68493 3.55339 5.16435 3.34165 5.675H2.21665C2.01359 5.67167 1.8119 5.70893 1.62344 5.7846C1.43497 5.86027 1.26351 5.97282 1.11913 6.11565C0.974752 6.25848 0.860354 6.4287 0.782653 6.61634C0.704952 6.80398 0.665513 7.00525 0.66665 7.20834V8.77501C0.665553 8.97746 0.704343 9.17815 0.780807 9.36561C0.857271 9.55308 0.969911 9.72364 1.11229 9.86757C1.25468 10.0115 1.42402 10.126 1.61064 10.2045C1.79727 10.283 1.99753 10.3239 2.19998 10.325H3.34165C3.55047 10.8371 3.83106 11.3169 4.17498 11.75L3.59998 12.7333C3.49868 12.9083 3.43296 13.1015 3.40662 13.3019C3.38028 13.5024 3.39384 13.706 3.4465 13.9012C3.49917 14.0964 3.58991 14.2792 3.7135 14.4392C3.83709 14.5992 3.99109 14.7331 4.16665 14.8333L5.52498 15.625C5.70056 15.7265 5.89443 15.7924 6.0955 15.8188C6.29657 15.8453 6.50088 15.8318 6.69673 15.7791C6.89258 15.7265 7.07612 15.6357 7.23684 15.5121C7.39755 15.3884 7.53229 15.2342 7.63332 15.0583L8.20832 14.0583C8.47024 14.0987 8.73497 14.1182 8.99998 14.1167C9.2787 14.1145 9.55701 14.095 9.83332 14.0583L10.4 15.0417C10.5002 15.2172 10.6342 15.3712 10.7941 15.4948C10.9541 15.6184 11.1369 15.7092 11.3321 15.7618C11.5273 15.8145 11.7309 15.828 11.9314 15.8017C12.1318 15.7754 12.325 15.7096 12.5 15.6083L13.8583 14.825C14.0346 14.7255 14.1894 14.592 14.3138 14.4324C14.4382 14.2727 14.5298 14.09 14.5833 13.8948C14.6367 13.6996 14.651 13.4957 14.6252 13.2949C14.5995 13.0941 14.5343 12.9004 14.4333 12.725L13.8583 11.725C14.1924 11.3003 14.4724 10.8356 14.6916 10.3417H15.8166C16.2142 10.3312 16.5927 10.1692 16.8746 9.88881C17.1566 9.6084 17.3207 9.2308 17.3333 8.83334V7.25834C17.3378 6.85088 17.1807 6.45823 16.8965 6.16622C16.6123 5.87421 16.2241 5.70659 15.8166 5.7Z" fill="#68686D"/>
<path d="M8.99166 10.7083C10.4874 10.7083 11.7 9.49578 11.7 8.00001C11.7 6.50423 10.4874 5.29167 8.99166 5.29167C7.49589 5.29167 6.28333 6.50423 6.28333 8.00001C6.28333 9.49578 7.49589 10.7083 8.99166 10.7083Z" fill="#FED65E"/>
</svg>
