<svg width="17" height="15" viewBox="0 0 17 15" fill="none" xmlns="http://www.w3.org/2000/svg">
<path d="M6.575 9.33333C6.57485 8.55581 6.83361 7.80037 7.31044 7.18623C7.78727 6.57208 8.45502 6.13419 9.20833 5.94167C10.181 5.69047 11.2133 5.83111 12.0833 6.33333C12.5511 6.05982 13.0723 5.89001 13.6114 5.83537C14.1506 5.78074 14.6951 5.84256 15.2083 6.01667C15.3974 6.08355 15.5812 6.16433 15.7583 6.25833C15.798 5.9543 15.8203 5.64824 15.825 5.34167C15.8149 4.42623 15.5242 3.53593 14.9922 2.79086C14.4602 2.04579 13.7125 1.48181 12.85 1.175C12.0956 0.914961 11.2887 0.845077 10.5008 0.971544C9.71294 1.09801 8.96845 1.41692 8.33333 1.9C7.74848 1.45229 7.06891 1.14441 6.34667 0.999964C5.62443 0.855516 4.87872 0.878333 4.16666 1.06667C3.21366 1.31371 2.36948 1.86982 1.76631 2.64791C1.16313 3.42601 0.835015 4.38216 0.83333 5.36667C0.749997 10.6667 6.66666 13.4833 8.04166 14.075C8.22393 14.1457 8.42606 14.1457 8.60833 14.075C8.74448 14.0329 8.87805 13.9828 9.00833 13.925C8.27868 13.3966 7.67991 12.7079 7.25807 11.9119C6.83623 11.1159 6.60255 10.2338 6.575 9.33333Z" fill="#68686D"/>
<path d="M12.0833 7.875L11.7 7.58333C11.2689 7.24776 10.738 7.0659 10.1917 7.06667C9.9643 7.06974 9.73795 7.09768 9.51667 7.15C9.03475 7.28372 8.61034 7.57251 8.30906 7.9717C8.00779 8.37089 7.84645 8.85823 7.85 9.35833C7.79167 12.4333 11.425 14.1333 12.1583 14.4417C12.7833 14.2 16.325 12.8167 16.325 9.3C16.3092 8.84113 16.1573 8.39731 15.8888 8.02489C15.6202 7.65248 15.2471 7.36826 14.8167 7.20833C14.4223 7.06767 13.999 7.02829 13.5855 7.09381C13.172 7.15933 12.7815 7.32766 12.45 7.58333L12.0833 7.875Z" fill="#FED65E"/>
</svg>
