<svg width="24" height="24" viewBox="0 0 24 24" fill="none" xmlns="http://www.w3.org/2000/svg">
<path d="M14.85 11.9999C14.85 12.5636 14.6828 13.1146 14.3697 13.5833C14.0565 14.052 13.6114 14.4173 13.0906 14.633C12.5699 14.8487 11.9968 14.9051 11.444 14.7952C10.8911 14.6852 10.3833 14.4138 9.98475 14.0152C9.58617 13.6166 9.31473 13.1088 9.20476 12.5559C9.09479 12.0031 9.15123 11.4301 9.36694 10.9093C9.58265 10.3885 9.94795 9.94342 10.4166 9.63025C10.8853 9.31709 11.4363 9.14994 12 9.14994C12.7551 9.15258 13.4784 9.45369 14.0123 9.9876C14.5463 10.5215 14.8474 11.2449 14.85 11.9999ZM22 11.9999C22 15.9999 17 20.5599 12 20.5599C7.27 20.5599 2 15.7599 2 11.9999C2 8.05994 7.27 3.43994 12 3.43994C16.73 3.43994 22 8.17994 22 11.9999ZM16.35 11.9999C16.35 11.1396 16.0949 10.2986 15.6169 9.58321C15.1389 8.86786 14.4595 8.31031 13.6647 7.98107C12.8698 7.65182 11.9952 7.56568 11.1514 7.73353C10.3075 7.90137 9.53244 8.31567 8.92409 8.92403C8.31573 9.53239 7.90143 10.3075 7.73358 11.1513C7.56574 11.9951 7.65188 12.8698 7.98112 13.6646C8.31037 14.4595 8.86792 15.1389 9.58327 15.6168C10.2986 16.0948 11.1397 16.3499 12 16.3499C13.1537 16.3499 14.2601 15.8916 15.0759 15.0759C15.8917 14.2601 16.35 13.1536 16.35 11.9999Z" fill="#FED65E"/>
</svg>
