<svg width="20" height="20" viewBox="0 0 20 20" fill="none" xmlns="http://www.w3.org/2000/svg">
<path d="M18.3329 10.0003H14.3912C13.8473 9.98647 13.3116 9.86428 12.8154 9.64088C12.3193 9.41749 11.8727 9.09739 11.5018 8.69931C11.1309 8.30123 10.8431 7.83317 10.6553 7.32252C10.4674 6.81186 10.3833 6.26887 10.4079 5.72533V1.66699H6.3162C5.06961 1.68456 3.88067 2.19497 3.00932 3.08663C2.13796 3.97828 1.65507 5.17866 1.6662 6.42533V13.5753C1.65507 14.822 2.13796 16.0224 3.00932 16.914C3.88067 17.8057 5.06961 18.3161 6.3162 18.3337H13.6662C14.915 18.3183 16.1069 17.8091 16.9814 16.9174C17.8559 16.0258 18.3418 14.8242 18.3329 13.5753V10.0003Z" fill="#68686D"/>
<path d="M13.3325 14.2087C13.3464 14.3644 13.2981 14.5193 13.1982 14.6395C13.0983 14.7597 12.9548 14.8355 12.7992 14.8503H6.5575C6.40272 14.8335 6.26056 14.7571 6.16104 14.6374C6.06152 14.5176 6.01244 14.3639 6.02417 14.2087C6.01255 14.0543 6.06189 13.9016 6.16159 13.7832C6.2613 13.6648 6.40343 13.5902 6.5575 13.5753H12.7742C12.853 13.5784 12.9305 13.5975 13.0018 13.6314C13.0731 13.6652 13.1367 13.7132 13.1889 13.7725C13.2411 13.8317 13.2808 13.9009 13.3054 13.9758C13.3301 14.0508 13.3393 14.13 13.3325 14.2087ZM11.6658 1.66699V5.66699C11.6399 6.04577 11.6907 6.42588 11.8154 6.7845C11.94 7.14311 12.1359 7.47283 12.3912 7.75382C12.6465 8.03482 12.956 8.26131 13.3011 8.41966C13.6461 8.57802 14.0196 8.66498 14.3992 8.67533H18.3325L11.6658 1.66699ZM6.7325 11.4253H9.36583C9.5338 11.4253 9.69489 11.3586 9.81367 11.2398C9.93244 11.1211 9.99917 10.96 9.99917 10.792C9.99917 10.624 9.93244 10.4629 9.81367 10.3442C9.69489 10.2254 9.5338 10.1587 9.36583 10.1587H6.7325C6.56453 10.1587 6.40344 10.2254 6.28467 10.3442C6.16589 10.4629 6.09917 10.624 6.09917 10.792C6.09917 10.96 6.16589 11.1211 6.28467 11.2398C6.40344 11.3586 6.56453 11.4253 6.7325 11.4253Z" fill="#FED65E"/>
</svg>
